<svg xmlns="http://www.w3.org/2000/svg" xmlns:xlink="http://www.w3.org/1999/xlink" width="500" zoomAndPan="magnify" viewBox="0 0 375 374.999991" height="500" preserveAspectRatio="xMidYMid meet" version="1.0"><defs><g/><clipPath id="9ba0d7209a"><path d="M 177 114 L 274 114 L 274 268.566406 L 177 268.566406 Z M 177 114 " clip-rule="nonzero"/></clipPath><clipPath id="63681ce874"><path d="M 106.957031 191.75 L 212.746094 191.75 L 212.746094 231.933594 L 106.957031 231.933594 Z M 106.957031 191.75 " clip-rule="nonzero"/></clipPath><clipPath id="9538631a5f"><path d="M 124.207031 191.75 L 195.40625 191.75 C 204.933594 191.75 212.65625 199.476562 212.65625 209 L 212.65625 214.683594 C 212.65625 224.210938 204.933594 231.933594 195.40625 231.933594 L 124.207031 231.933594 C 114.679688 231.933594 106.957031 224.210938 106.957031 214.683594 L 106.957031 209 C 106.957031 199.476562 114.679688 191.75 124.207031 191.75 Z M 124.207031 191.75 " clip-rule="nonzero"/></clipPath></defs><g clip-path="url(#9ba0d7209a)"><path fill="#2ca75a" d="M 195.6875 118.632812 C 200.378906 118.632812 206.757812 117.167969 212.1875 116.878906 C 228.898438 115.984375 246.035156 118.867188 255.832031 131.914062 C 268.445312 148.726562 262.289062 175.605469 253.039062 192.640625 C 242.917969 211.269531 231.351562 222.378906 216.101562 233.8125 C 212.125 236.789062 210.253906 238.984375 206.71875 239.4375 C 203.640625 236.332031 199.367188 234.410156 194.648438 234.410156 C 185.257812 234.410156 177.640625 242.023438 177.640625 251.417969 C 177.640625 260.808594 185.257812 268.425781 194.648438 268.425781 C 203.976562 268.425781 211.550781 260.902344 211.644531 251.585938 C 212.554688 251.054688 213.789062 250.351562 215.554688 249.3125 C 219.855469 246.792969 223.960938 244.296875 227.457031 241.6875 L 238.175781 232.875 C 267.863281 207.671875 289.273438 155.558594 257.742188 126.496094 C 236.121094 106.566406 203.082031 118.441406 195.6875 118.632812 Z M 195.6875 118.632812 " fill-opacity="1" fill-rule="evenodd"/></g><path fill="#1f2b5b" d="M 188.582031 231.265625 C 180.097656 226.199219 175.707031 226.042969 164.183594 217.273438 C 138.898438 198.070312 124.414062 163.898438 144.253906 138.238281 C 159.492188 118.515625 193.492188 131.757812 199.792969 139.824219 C 200.71875 141.019531 201.316406 142.4375 201.742188 143.984375 C 201.054688 145.828125 200.679688 147.816406 200.679688 149.894531 C 200.679688 159.289062 208.292969 166.902344 217.683594 166.902344 C 227.078125 166.902344 234.691406 159.289062 234.691406 149.894531 C 234.691406 140.5 227.078125 132.886719 217.683594 132.886719 C 216.179688 132.886719 214.710938 133.082031 213.320312 133.457031 C 211.980469 132.820312 210.214844 131.875 207.757812 130.445312 C 199.367188 125.558594 191.195312 120.945312 179.957031 119.179688 C 167.09375 117.152344 157.957031 118.621094 148.175781 124.039062 C 111.1875 144.582031 122.242188 186.363281 149.851562 211.398438 C 157.804688 218.625 178.695312 229.238281 188.582031 231.265625 Z M 188.582031 231.265625 " fill-opacity="1" fill-rule="evenodd"/><path fill="#2ca75a" d="M 168.964844 163.339844 C 150.34375 163.339844 153.789062 159.484375 153.917969 178.683594 L 168.949219 179.011719 L 168.964844 194.042969 L 184.582031 194.015625 L 184.582031 179.269531 L 199.601562 178.945312 L 199.636719 163.394531 L 184.734375 163.316406 L 184.566406 148.308594 L 168.964844 148.308594 Z M 168.964844 163.339844 " fill-opacity="1" fill-rule="evenodd"/><g clip-path="url(#63681ce874)"><g clip-path="url(#9538631a5f)"><path fill="#ffffff" d="M 106.957031 191.75 L 212.589844 191.75 L 212.589844 231.933594 L 106.957031 231.933594 Z M 106.957031 191.75 " fill-opacity="1" fill-rule="nonzero"/></g></g><path stroke-linecap="butt" transform="matrix(0.979791, 0, 0, 0.979791, 86.986837, 222.624698)" fill="none" stroke-linejoin="miter" d="M 21.48645 4.306074 C 21.777488 4.306074 22.008723 4.441626 22.180157 4.716717 L 25.03472 9.177969 L 27.873337 4.70077 C 27.965033 4.565218 28.076664 4.465547 28.208229 4.401758 C 28.339795 4.337969 28.47136 4.306074 28.594951 4.306074 C 28.794292 4.306074 28.973699 4.37385 29.129185 4.505415 C 29.284671 4.63698 29.364407 4.824361 29.364407 5.067557 L 29.364407 12.291676 C 29.364407 12.526898 29.276697 12.706305 29.101277 12.821923 C 28.929844 12.941528 28.74645 13.00133 28.555083 13.00133 C 28.355742 13.00133 28.176335 12.941528 28.016862 12.821923 C 27.857389 12.706305 27.78164 12.526898 27.78164 12.291676 L 27.78164 7.690885 L 25.744374 10.872368 C 25.672612 11.00792 25.568954 11.10759 25.437389 11.171379 C 25.305824 11.235168 25.170272 11.267063 25.03472 11.267063 C 24.899168 11.267063 24.75963 11.227195 24.616104 11.151445 C 24.476565 11.071709 24.368921 10.964065 24.297158 10.8325 L 22.291788 7.702845 L 22.291788 12.291676 C 22.291788 12.526898 22.208064 12.706305 22.036631 12.821923 C 21.869185 12.941528 21.689778 13.00133 21.49841 13.00133 C 21.299069 13.00133 21.115676 12.941528 20.952216 12.821923 C 20.788756 12.706305 20.70902 12.526898 20.70902 12.291676 L 20.70902 5.083504 C 20.70902 4.848282 20.788756 4.656914 20.944242 4.517376 C 21.103715 4.377837 21.283122 4.306074 21.48645 4.306074 Z M 39.590602 11.633851 C 39.829811 11.633851 40.013205 11.7096 40.14477 11.861099 C 40.276335 12.012598 40.344111 12.172071 40.344111 12.343505 C 40.344111 12.506964 40.280322 12.658463 40.160718 12.798002 C 40.037126 12.933554 39.849746 13.00133 39.590602 13.00133 L 34.172513 13.00133 C 33.901409 13.00133 33.682134 12.921594 33.518674 12.762121 C 33.355215 12.602648 33.275478 12.407294 33.275478 12.180045 L 33.275478 5.111412 C 33.275478 4.892137 33.355215 4.704756 33.518674 4.545284 C 33.682134 4.385811 33.901409 4.306074 34.172513 4.306074 L 39.590602 4.306074 C 39.837785 4.306074 40.021179 4.37385 40.140783 4.505415 C 40.256401 4.63698 40.316204 4.78848 40.316204 4.959913 C 40.316204 5.123372 40.256401 5.278858 40.13281 5.426371 C 40.009218 5.569896 39.829811 5.641659 39.590602 5.641659 L 34.830338 5.641659 L 34.830338 8.029765 L 39.347406 8.029765 C 39.582629 8.029765 39.762036 8.101527 39.877653 8.245053 C 39.997258 8.384592 40.05706 8.540078 40.05706 8.715498 C 40.05706 8.878957 39.997258 9.030457 39.877653 9.166009 C 39.762036 9.30156 39.582629 9.369336 39.347406 9.369336 L 34.830338 9.369336 L 34.830338 11.633851 Z M 46.890471 4.306074 C 47.715743 4.306074 48.441344 4.489468 49.059301 4.852269 C 49.677258 5.215069 50.159664 5.725382 50.506517 6.375234 C 50.849384 7.025086 51.024804 7.786569 51.024804 8.659682 C 51.024804 9.524822 50.849384 10.286305 50.506517 10.940144 C 50.159664 11.593982 49.677258 12.100309 49.059301 12.459122 C 48.441344 12.821923 47.715743 13.00133 46.890471 13.00133 L 44.079762 13.00133 C 43.832579 13.00133 43.621278 12.921594 43.441871 12.762121 C 43.266451 12.602648 43.174754 12.415267 43.174754 12.192005 L 43.174754 5.095465 C 43.174754 4.87619 43.266451 4.692796 43.441871 4.53731 C 43.621278 4.381824 43.832579 4.306074 44.079762 4.306074 Z M 46.890471 11.645811 C 47.400784 11.645811 47.847308 11.52222 48.234029 11.275037 C 48.620751 11.023867 48.923749 10.673027 49.135051 10.23049 C 49.350339 9.783966 49.453996 9.261692 49.453996 8.659682 C 49.453996 8.057672 49.350339 7.531412 49.135051 7.076915 C 48.923749 6.622417 48.620751 6.26759 48.234029 6.01642 C 47.847308 5.769237 47.400784 5.641659 46.890471 5.641659 L 44.733601 5.641659 L 44.733601 11.645811 Z M 54.102629 5.043636 C 54.102629 4.784493 54.186352 4.601099 54.349812 4.481494 C 54.517259 4.365877 54.696665 4.306074 54.896006 4.306074 C 55.099334 4.306074 55.282728 4.365877 55.450175 4.481494 C 55.617621 4.601099 55.705331 4.784493 55.705331 5.043636 L 55.705331 12.303636 C 55.705331 12.530885 55.617621 12.706305 55.450175 12.821923 C 55.282728 12.941528 55.099334 13.00133 54.896006 13.00133 C 54.696665 13.00133 54.517259 12.941528 54.349812 12.829897 C 54.186352 12.718266 54.102629 12.542846 54.102629 12.303636 Z M 62.937424 4.170522 C 63.611196 4.170522 64.23314 4.270193 64.807242 4.469534 C 65.381345 4.668875 65.887671 5.019715 66.334195 5.518068 C 66.513602 5.729369 66.593338 5.92871 66.573404 6.120078 C 66.549483 6.311445 66.46576 6.466931 66.314261 6.586536 C 66.162761 6.702153 65.987341 6.757969 65.780027 6.749995 C 65.576699 6.738035 65.381345 6.638364 65.201938 6.446997 C 64.867045 6.076223 64.508231 5.833027 64.129483 5.725382 C 63.750735 5.617738 63.352053 5.561923 62.925463 5.561923 C 62.347374 5.561923 61.845035 5.685514 61.410471 5.936684 C 60.979895 6.187854 60.645002 6.534707 60.401806 6.981231 C 60.162596 7.427755 60.042992 7.950028 60.042992 8.552038 C 60.042992 9.185943 60.162596 9.748084 60.405793 10.23049 C 60.652975 10.712895 60.999829 11.087656 61.442366 11.350786 C 61.880916 11.613916 62.399203 11.745481 62.989252 11.745481 C 63.415842 11.745481 63.846419 11.633851 64.273008 11.418562 C 64.703585 11.199287 65.042465 10.936157 65.297621 10.625185 C 65.477028 10.40591 65.676369 10.282318 65.891658 10.250424 C 66.106946 10.218529 66.29034 10.254411 66.449813 10.362055 C 66.609285 10.465712 66.704969 10.613224 66.736864 10.804592 C 66.768758 10.995959 66.704969 11.207261 66.541509 11.442483 C 66.294327 11.789337 65.975381 12.092335 65.584672 12.347491 C 65.193964 12.598661 64.767374 12.794015 64.312877 12.933554 C 63.858379 13.069106 63.407868 13.136882 62.965331 13.136882 C 62.060323 13.136882 61.274919 12.945514 60.601147 12.56278 C 59.927374 12.180045 59.405101 11.645811 59.030339 10.960078 C 58.659565 10.270358 58.472185 9.469007 58.472185 8.552038 C 58.472185 7.666964 58.667539 6.897508 59.058247 6.243669 C 59.448956 5.589831 59.98319 5.079517 60.660949 4.716717 C 61.342695 4.349929 62.100191 4.170522 62.937424 4.170522 Z M 69.535612 5.043636 C 69.535612 4.784493 69.619335 4.601099 69.782795 4.481494 C 69.946254 4.365877 70.129648 4.306074 70.328989 4.306074 C 70.52833 4.306074 70.711724 4.365877 70.883157 4.481494 C 71.050603 4.601099 71.134327 4.784493 71.134327 5.043636 L 71.134327 12.303636 C 71.134327 12.530885 71.050603 12.706305 70.883157 12.821923 C 70.711724 12.941528 70.52833 13.00133 70.328989 13.00133 C 70.129648 13.00133 69.946254 12.941528 69.782795 12.829897 C 69.619335 12.718266 69.535612 12.542846 69.535612 12.303636 Z M 80.168462 4.97586 C 80.168462 4.756585 80.256172 4.589139 80.435579 4.473521 C 80.610999 4.36189 80.802367 4.306074 81.001708 4.306074 C 81.209022 4.306074 81.392416 4.357903 81.555876 4.46156 C 81.715349 4.565218 81.795085 4.736651 81.795085 4.97586 L 81.795085 12.180045 C 81.795085 12.455136 81.699401 12.658463 81.508034 12.798002 C 81.316666 12.933554 81.105365 13.00133 80.878116 13.00133 C 80.72263 13.00133 80.571131 12.961462 80.419632 12.889699 C 80.272119 12.817936 80.148528 12.722253 80.060818 12.602648 L 75.88263 7.224427 L 75.938446 7.989896 L 75.938446 12.275729 C 75.938446 12.530885 75.854722 12.718266 75.687276 12.829897 C 75.515843 12.941528 75.332449 13.00133 75.133108 13.00133 C 74.921806 13.00133 74.734426 12.941528 74.566979 12.829897 C 74.395546 12.718266 74.311823 12.530885 74.311823 12.275729 L 74.311823 5.13932 C 74.311823 4.864229 74.395546 4.656914 74.566979 4.517376 C 74.734426 4.377837 74.92978 4.306074 75.145068 4.306074 C 75.320488 4.306074 75.468001 4.337969 75.587605 4.409732 C 75.711197 4.473521 75.826815 4.577178 75.938446 4.716717 L 80.224278 10.282318 L 80.168462 9.369336 Z M 91.794031 11.633851 C 92.029253 11.633851 92.216634 11.7096 92.344212 11.861099 C 92.475777 12.012598 92.543553 12.172071 92.543553 12.343505 C 92.543553 12.506964 92.479764 12.658463 92.360159 12.798002 C 92.236568 12.933554 92.049187 13.00133 91.794031 13.00133 L 86.375942 13.00133 C 86.100851 13.00133 85.881576 12.921594 85.718116 12.762121 C 85.554657 12.602648 85.47492 12.407294 85.47492 12.180045 L 85.47492 5.111412 C 85.47492 4.892137 85.554657 4.704756 85.718116 4.545284 C 85.881576 4.385811 86.100851 4.306074 86.375942 4.306074 L 91.794031 4.306074 C 92.041214 4.306074 92.220621 4.37385 92.340225 4.505415 C 92.455843 4.63698 92.515645 4.78848 92.515645 4.959913 C 92.515645 5.123372 92.455843 5.278858 92.332252 5.426371 C 92.20866 5.569896 92.029253 5.641659 91.794031 5.641659 L 87.02978 5.641659 L 87.02978 8.029765 L 91.546848 8.029765 C 91.786057 8.029765 91.961477 8.101527 92.081082 8.245053 C 92.1967 8.384592 92.256502 8.540078 92.256502 8.715498 C 92.256502 8.878957 92.1967 9.030457 92.081082 9.166009 C 91.961477 9.30156 91.786057 9.369336 91.546848 9.369336 L 87.02978 9.369336 L 87.02978 11.633851 Z M 100.549089 10.940144 C 100.4853 10.677014 100.549089 10.465712 100.740456 10.310226 C 100.931824 10.15474 101.147112 10.07899 101.382334 10.07899 C 101.561741 10.07899 101.725201 10.118859 101.86474 10.206569 C 102.004278 10.294279 102.095975 10.429831 102.131857 10.609238 C 102.231527 10.900276 102.422895 11.127524 102.697985 11.286997 C 102.977063 11.44647 103.288035 11.558101 103.634888 11.617903 C 103.977755 11.673719 104.304674 11.705613 104.603685 11.705613 C 104.838908 11.705613 105.102038 11.685679 105.381116 11.649798 C 105.66418 11.613916 105.931297 11.54614 106.186453 11.450457 C 106.44161 11.354773 106.648924 11.219221 106.812384 11.047788 C 106.975844 10.872368 107.059567 10.653093 107.059567 10.381989 C 107.059567 10.086964 106.935976 9.871676 106.696766 9.736124 C 106.457557 9.600572 106.150572 9.504888 105.775811 9.445086 C 105.405036 9.385284 105.014328 9.341429 104.603685 9.313521 C 104.137227 9.27764 103.670769 9.225811 103.204311 9.150061 C 102.733867 9.078299 102.307277 8.958694 101.920555 8.799221 C 101.533834 8.631775 101.222862 8.392565 100.983652 8.081593 C 100.74843 7.766635 100.628825 7.348018 100.628825 6.829732 C 100.628825 6.367261 100.74843 5.968578 100.983652 5.633686 C 101.222862 5.294806 101.529847 5.019715 101.912582 4.804427 C 102.295316 4.589139 102.709946 4.429666 103.15647 4.326008 C 103.602994 4.222351 104.037557 4.170522 104.464147 4.170522 C 104.938578 4.170522 105.432944 4.222351 105.951231 4.333982 C 106.473504 4.441626 106.947936 4.632994 107.378513 4.912071 C 107.813076 5.191148 108.132022 5.57787 108.343323 6.080209 C 108.415086 6.335366 108.363257 6.546667 108.18385 6.714114 C 108.00843 6.885547 107.801116 6.96927 107.565893 6.96927 C 107.418381 6.96927 107.278842 6.933389 107.147277 6.865613 C 107.015712 6.797837 106.924015 6.702153 106.8682 6.586536 C 106.760555 6.303471 106.569188 6.09217 106.294097 5.956618 C 106.022994 5.821066 105.719995 5.733356 105.393076 5.693488 C 105.066157 5.649633 104.763158 5.629699 104.480094 5.629699 C 104.2967 5.629699 104.081412 5.645646 103.830242 5.685514 C 103.579073 5.721396 103.335877 5.785185 103.100654 5.876882 C 102.865432 5.964592 102.666091 6.09217 102.506618 6.251643 C 102.347145 6.411116 102.271395 6.60647 102.271395 6.845679 C 102.271395 7.136717 102.383026 7.355992 102.610275 7.499518 C 102.837524 7.64703 103.140522 7.7467 103.51927 7.802516 C 103.898018 7.854345 104.308661 7.8982 104.751198 7.934081 C 105.22563 7.981923 105.696074 8.033752 106.166519 8.093554 C 106.632977 8.153356 107.059567 8.257013 107.442302 8.408513 C 107.825037 8.556025 108.128035 8.783274 108.355284 9.090259 C 108.582532 9.397244 108.69815 9.819847 108.69815 10.362055 C 108.69815 10.912236 108.566585 11.362747 108.307442 11.717574 C 108.052285 12.072401 107.713406 12.355465 107.290803 12.56278 C 106.876173 12.774081 106.429649 12.921594 105.955218 13.005317 C 105.480786 13.093027 105.030275 13.136882 104.603685 13.136882 C 104.248858 13.136882 103.862137 13.101 103.443521 13.033225 C 103.024905 12.965449 102.618249 12.849831 102.219567 12.678397 C 101.824872 12.510951 101.478018 12.287689 101.17502 12.004625 C 100.876008 11.721561 100.668694 11.366734 100.549089 10.940144 Z M 118.003389 4.306074 C 118.26652 4.306074 118.465861 4.377837 118.601413 4.525349 C 118.736964 4.668875 118.80474 4.832335 118.80474 5.015728 C 118.80474 5.187162 118.736964 5.346634 118.601413 5.494147 C 118.465861 5.637672 118.26652 5.713422 118.003389 5.713422 L 115.463785 5.713422 L 115.475745 12.275729 C 115.475745 12.522911 115.388035 12.706305 115.208628 12.821923 C 115.033208 12.941528 114.853801 13.00133 114.670407 13.00133 C 114.47904 13.00133 114.299633 12.941528 114.132187 12.821923 C 113.96474 12.706305 113.881017 12.522911 113.881017 12.275729 L 113.881017 5.713422 L 111.353373 5.713422 C 111.090243 5.713422 110.898875 5.637672 110.775284 5.494147 C 110.651692 5.346634 110.59189 5.187162 110.59189 5.015728 C 110.59189 4.832335 110.651692 4.668875 110.775284 4.525349 C 110.898875 4.377837 111.090243 4.306074 111.353373 4.306074 Z M 129.848233 8.659682 C 129.848233 9.55273 129.660853 10.334147 129.294065 11.00792 C 128.923291 11.681692 128.408991 12.203966 127.743192 12.578727 C 127.077393 12.949501 126.299963 13.136882 125.410902 13.136882 C 124.517854 13.136882 123.736437 12.949501 123.062665 12.578727 C 122.388892 12.203966 121.866619 11.681692 121.491857 11.00792 C 121.117096 10.334147 120.933703 9.55273 120.933703 8.659682 C 120.933703 7.758661 121.117096 6.973257 121.491857 6.299485 C 121.866619 5.625712 122.388892 5.103438 123.062665 4.728677 C 123.736437 4.353916 124.517854 4.170522 125.410902 4.170522 C 126.299963 4.170522 127.077393 4.353916 127.743192 4.728677 C 128.408991 5.103438 128.923291 5.625712 129.294065 6.299485 C 129.660853 6.973257 129.848233 7.758661 129.848233 8.659682 Z M 125.410902 11.745481 C 125.985004 11.745481 126.483357 11.613916 126.901973 11.35876 C 127.328563 11.09563 127.659469 10.736816 127.894691 10.270358 C 128.129914 9.807887 128.249518 9.269666 128.249518 8.659682 C 128.249518 8.041725 128.129914 7.499518 127.894691 7.03306 C 127.659469 6.570588 127.328563 6.207788 126.901973 5.952631 C 126.483357 5.693488 125.985004 5.561923 125.410902 5.561923 C 124.8368 5.561923 124.334461 5.693488 123.899897 5.952631 C 123.46932 6.207788 123.134428 6.570588 122.895218 7.03306 C 122.659996 7.499518 122.540391 8.041725 122.540391 8.659682 C 122.540391 9.269666 122.659996 9.807887 122.895218 10.270358 C 123.134428 10.736816 123.46932 11.09563 123.899897 11.35876 C 124.334461 11.613916 124.8368 11.745481 125.410902 11.745481 Z M 140.333572 11.661758 C 140.544873 11.881033 140.644544 12.092335 140.63657 12.295663 C 140.624609 12.502977 140.54886 12.670424 140.401348 12.801989 C 140.257822 12.933554 140.086389 13.00133 139.891034 13.005317 C 139.69568 13.009304 139.512287 12.921594 139.336866 12.7382 L 136.896932 10.134806 L 134.835746 10.134806 L 134.835746 12.291676 C 134.835746 12.514938 134.752023 12.690358 134.584576 12.817936 C 134.413143 12.937541 134.233736 13.00133 134.042369 13.00133 C 133.843028 13.00133 133.659634 12.941528 133.496174 12.821923 C 133.332715 12.706305 133.252978 12.530885 133.252978 12.303636 L 133.252978 5.015728 C 133.252978 4.808414 133.328728 4.63698 133.47624 4.505415 C 133.627739 4.37385 133.81512 4.306074 134.042369 4.306074 L 137.0883 4.306074 C 137.905598 4.306074 138.587344 4.437639 139.133539 4.70077 C 139.68372 4.9639 140.090376 5.318727 140.361479 5.765251 C 140.63657 6.211775 140.772122 6.710127 140.772122 7.256322 C 140.772122 7.890226 140.600689 8.448381 140.257822 8.922813 C 139.918942 9.401231 139.400656 9.740111 138.698975 9.939452 Z M 134.835746 8.811182 L 137.104247 8.811182 C 137.829848 8.811182 138.360095 8.659682 138.694988 8.352697 C 139.033868 8.049699 139.193341 7.686898 139.173407 7.268282 C 139.165433 6.813784 138.978053 6.435036 138.615252 6.136025 C 138.252451 5.837013 137.746125 5.685514 137.104247 5.685514 L 134.835746 5.685514 Z M 150.200953 11.633851 C 150.436175 11.633851 150.623555 11.7096 150.751134 11.861099 C 150.882699 12.012598 150.950475 12.172071 150.950475 12.343505 C 150.950475 12.506964 150.886686 12.658463 150.767081 12.798002 C 150.64349 12.933554 150.456109 13.00133 150.200953 13.00133 L 144.782863 13.00133 C 144.507773 13.00133 144.288498 12.921594 144.125038 12.762121 C 143.961578 12.602648 143.881842 12.407294 143.881842 12.180045 L 143.881842 5.111412 C 143.881842 4.892137 143.961578 4.704756 144.125038 4.545284 C 144.288498 4.385811 144.507773 4.306074 144.782863 4.306074 L 150.200953 4.306074 C 150.448135 4.306074 150.627542 4.37385 150.747147 4.505415 C 150.862765 4.63698 150.922567 4.78848 150.922567 4.959913 C 150.922567 5.123372 150.862765 5.278858 150.739173 5.426371 C 150.615582 5.569896 150.436175 5.641659 150.200953 5.641659 L 145.436702 5.641659 L 145.436702 8.029765 L 149.95377 8.029765 C 150.192979 8.029765 150.368399 8.101527 150.488004 8.245053 C 150.603621 8.384592 150.663424 8.540078 150.663424 8.715498 C 150.663424 8.878957 150.603621 9.030457 150.488004 9.166009 C 150.368399 9.30156 150.192979 9.369336 149.95377 9.369336 L 145.436702 9.369336 L 145.436702 11.633851 Z M 150.200953 11.633851 " stroke="#ffffff" stroke-width="3.584753" stroke-opacity="1" stroke-miterlimit="4"/><g fill="#1f2b5b" fill-opacity="1"><g transform="translate(106.460179, 235.361978)"><g><path d="M 1.578125 -8.515625 C 1.859375 -8.515625 2.085938 -8.382812 2.265625 -8.125 L 5.0625 -3.75 L 7.84375 -8.125 C 7.925781 -8.257812 8.03125 -8.359375 8.15625 -8.421875 C 8.289062 -8.484375 8.421875 -8.515625 8.546875 -8.515625 C 8.742188 -8.515625 8.914062 -8.445312 9.0625 -8.3125 C 9.21875 -8.1875 9.296875 -8.003906 9.296875 -7.765625 L 9.296875 -0.703125 C 9.296875 -0.460938 9.207031 -0.285156 9.03125 -0.171875 C 8.863281 -0.0546875 8.6875 0 8.5 0 C 8.3125 0 8.140625 -0.0546875 7.984375 -0.171875 C 7.828125 -0.285156 7.75 -0.460938 7.75 -0.703125 L 7.75 -5.203125 L 5.75 -2.09375 C 5.675781 -1.957031 5.570312 -1.859375 5.4375 -1.796875 C 5.3125 -1.734375 5.1875 -1.703125 5.0625 -1.703125 C 4.925781 -1.703125 4.785156 -1.738281 4.640625 -1.8125 C 4.503906 -1.882812 4.398438 -1.988281 4.328125 -2.125 L 2.375 -5.1875 L 2.375 -0.703125 C 2.375 -0.460938 2.289062 -0.285156 2.125 -0.171875 C 1.957031 -0.0546875 1.78125 0 1.59375 0 C 1.394531 0 1.210938 -0.0546875 1.046875 -0.171875 C 0.890625 -0.285156 0.8125 -0.460938 0.8125 -0.703125 L 0.8125 -7.75 C 0.8125 -7.988281 0.890625 -8.175781 1.046875 -8.3125 C 1.203125 -8.445312 1.378906 -8.515625 1.578125 -8.515625 Z M 1.578125 -8.515625 "/></g></g></g><g fill="#1f2b5b" fill-opacity="1"><g transform="translate(118.81127, 235.361978)"><g><path d="M 6.96875 -1.34375 C 7.195312 -1.34375 7.375 -1.265625 7.5 -1.109375 C 7.632812 -0.960938 7.703125 -0.804688 7.703125 -0.640625 C 7.703125 -0.484375 7.640625 -0.335938 7.515625 -0.203125 C 7.398438 -0.0664062 7.21875 0 6.96875 0 L 1.65625 0 C 1.382812 0 1.171875 -0.078125 1.015625 -0.234375 C 0.859375 -0.390625 0.78125 -0.578125 0.78125 -0.796875 L 0.78125 -7.734375 C 0.78125 -7.941406 0.859375 -8.125 1.015625 -8.28125 C 1.171875 -8.4375 1.382812 -8.515625 1.65625 -8.515625 L 6.96875 -8.515625 C 7.207031 -8.515625 7.382812 -8.445312 7.5 -8.3125 C 7.613281 -8.1875 7.671875 -8.039062 7.671875 -7.875 C 7.671875 -7.71875 7.609375 -7.566406 7.484375 -7.421875 C 7.367188 -7.273438 7.195312 -7.203125 6.96875 -7.203125 L 2.296875 -7.203125 L 2.296875 -4.875 L 6.734375 -4.875 C 6.960938 -4.875 7.132812 -4.800781 7.25 -4.65625 C 7.363281 -4.519531 7.421875 -4.367188 7.421875 -4.203125 C 7.421875 -4.035156 7.363281 -3.882812 7.25 -3.75 C 7.132812 -3.625 6.960938 -3.5625 6.734375 -3.5625 L 2.296875 -3.5625 L 2.296875 -1.34375 Z M 6.96875 -1.34375 "/></g></g></g><g fill="#1f2b5b" fill-opacity="1"><g transform="translate(128.983875, 235.361978)"><g><path d="M 3.953125 -8.515625 C 4.753906 -8.515625 5.457031 -8.335938 6.0625 -7.984375 C 6.675781 -7.628906 7.148438 -7.128906 7.484375 -6.484375 C 7.828125 -5.847656 8 -5.101562 8 -4.25 C 8 -3.40625 7.828125 -2.660156 7.484375 -2.015625 C 7.148438 -1.378906 6.675781 -0.882812 6.0625 -0.53125 C 5.457031 -0.175781 4.753906 0 3.953125 0 L 1.1875 0 C 0.945312 0 0.738281 -0.078125 0.5625 -0.234375 C 0.394531 -0.390625 0.3125 -0.578125 0.3125 -0.796875 L 0.3125 -7.75 C 0.3125 -7.957031 0.394531 -8.132812 0.5625 -8.28125 C 0.738281 -8.4375 0.945312 -8.515625 1.1875 -8.515625 Z M 3.953125 -1.328125 C 4.441406 -1.328125 4.875 -1.445312 5.25 -1.6875 C 5.632812 -1.9375 5.929688 -2.28125 6.140625 -2.71875 C 6.347656 -3.15625 6.453125 -3.664062 6.453125 -4.25 C 6.453125 -4.84375 6.347656 -5.359375 6.140625 -5.796875 C 5.929688 -6.242188 5.632812 -6.585938 5.25 -6.828125 C 4.875 -7.078125 4.441406 -7.203125 3.953125 -7.203125 L 1.828125 -7.203125 L 1.828125 -1.328125 Z M 3.953125 -1.328125 "/></g></g></g><g fill="#1f2b5b" fill-opacity="1"><g transform="translate(139.397047, 235.361978)"><g><path d="M 0.609375 -7.796875 C 0.609375 -8.046875 0.6875 -8.226562 0.84375 -8.34375 C 1 -8.457031 1.175781 -8.515625 1.375 -8.515625 C 1.570312 -8.515625 1.753906 -8.457031 1.921875 -8.34375 C 2.085938 -8.226562 2.171875 -8.046875 2.171875 -7.796875 L 2.171875 -0.6875 C 2.171875 -0.457031 2.085938 -0.285156 1.921875 -0.171875 C 1.753906 -0.0546875 1.570312 0 1.375 0 C 1.175781 0 1 -0.0507812 0.84375 -0.15625 C 0.6875 -0.269531 0.609375 -0.445312 0.609375 -0.6875 Z M 0.609375 -7.796875 "/></g></g></g><g fill="#1f2b5b" fill-opacity="1"><g transform="translate(143.969734, 235.361978)"><g><path d="M 4.6875 -8.65625 C 5.34375 -8.65625 5.953125 -8.554688 6.515625 -8.359375 C 7.078125 -8.160156 7.578125 -7.816406 8.015625 -7.328125 C 8.191406 -7.117188 8.269531 -6.921875 8.25 -6.734375 C 8.226562 -6.546875 8.140625 -6.394531 7.984375 -6.28125 C 7.835938 -6.164062 7.664062 -6.113281 7.46875 -6.125 C 7.269531 -6.132812 7.082031 -6.234375 6.90625 -6.421875 C 6.570312 -6.785156 6.21875 -7.019531 5.84375 -7.125 C 5.476562 -7.238281 5.085938 -7.296875 4.671875 -7.296875 C 4.109375 -7.296875 3.613281 -7.171875 3.1875 -6.921875 C 2.757812 -6.671875 2.425781 -6.328125 2.1875 -5.890625 C 1.957031 -5.460938 1.84375 -4.953125 1.84375 -4.359375 C 1.84375 -3.734375 1.960938 -3.179688 2.203125 -2.703125 C 2.441406 -2.234375 2.773438 -1.867188 3.203125 -1.609375 C 3.640625 -1.359375 4.148438 -1.234375 4.734375 -1.234375 C 5.148438 -1.234375 5.566406 -1.335938 5.984375 -1.546875 C 6.410156 -1.765625 6.75 -2.023438 7 -2.328125 C 7.175781 -2.535156 7.367188 -2.65625 7.578125 -2.6875 C 7.785156 -2.71875 7.96875 -2.679688 8.125 -2.578125 C 8.28125 -2.484375 8.375 -2.34375 8.40625 -2.15625 C 8.4375 -1.96875 8.375 -1.757812 8.21875 -1.53125 C 7.96875 -1.1875 7.648438 -0.890625 7.265625 -0.640625 C 6.890625 -0.390625 6.476562 -0.195312 6.03125 -0.0625 C 5.582031 0.0703125 5.140625 0.140625 4.703125 0.140625 C 3.828125 0.140625 3.054688 -0.046875 2.390625 -0.421875 C 1.734375 -0.796875 1.222656 -1.320312 0.859375 -2 C 0.492188 -2.675781 0.3125 -3.460938 0.3125 -4.359375 C 0.3125 -5.222656 0.5 -5.972656 0.875 -6.609375 C 1.257812 -7.253906 1.785156 -7.753906 2.453125 -8.109375 C 3.117188 -8.472656 3.863281 -8.65625 4.6875 -8.65625 Z M 4.6875 -8.65625 "/></g></g></g><g fill="#1f2b5b" fill-opacity="1"><g transform="translate(154.516564, 235.361978)"><g><path d="M 0.609375 -7.796875 C 0.609375 -8.046875 0.6875 -8.226562 0.84375 -8.34375 C 1 -8.457031 1.175781 -8.515625 1.375 -8.515625 C 1.570312 -8.515625 1.753906 -8.457031 1.921875 -8.34375 C 2.085938 -8.226562 2.171875 -8.046875 2.171875 -7.796875 L 2.171875 -0.6875 C 2.171875 -0.457031 2.085938 -0.285156 1.921875 -0.171875 C 1.753906 -0.0546875 1.570312 0 1.375 0 C 1.175781 0 1 -0.0507812 0.84375 -0.15625 C 0.6875 -0.269531 0.609375 -0.445312 0.609375 -0.6875 Z M 0.609375 -7.796875 "/></g></g></g><g fill="#1f2b5b" fill-opacity="1"><g transform="translate(159.089251, 235.361978)"><g><path d="M 6.453125 -7.859375 C 6.453125 -8.078125 6.535156 -8.238281 6.703125 -8.34375 C 6.878906 -8.457031 7.066406 -8.515625 7.265625 -8.515625 C 7.460938 -8.515625 7.640625 -8.460938 7.796875 -8.359375 C 7.953125 -8.265625 8.03125 -8.097656 8.03125 -7.859375 L 8.03125 -0.796875 C 8.03125 -0.535156 7.9375 -0.335938 7.75 -0.203125 C 7.570312 -0.0664062 7.367188 0 7.140625 0 C 6.992188 0 6.84375 -0.0351562 6.6875 -0.109375 C 6.539062 -0.179688 6.425781 -0.273438 6.34375 -0.390625 L 2.25 -5.65625 L 2.296875 -4.90625 L 2.296875 -0.703125 C 2.296875 -0.453125 2.210938 -0.269531 2.046875 -0.15625 C 1.890625 -0.0507812 1.710938 0 1.515625 0 C 1.304688 0 1.117188 -0.0507812 0.953125 -0.15625 C 0.785156 -0.269531 0.703125 -0.453125 0.703125 -0.703125 L 0.703125 -7.703125 C 0.703125 -7.972656 0.785156 -8.175781 0.953125 -8.3125 C 1.117188 -8.445312 1.3125 -8.515625 1.53125 -8.515625 C 1.695312 -8.515625 1.835938 -8.476562 1.953125 -8.40625 C 2.078125 -8.34375 2.191406 -8.25 2.296875 -8.125 L 6.5 -2.65625 L 6.453125 -3.5625 Z M 6.453125 -7.859375 "/></g></g></g><g fill="#1f2b5b" fill-opacity="1"><g transform="translate(169.956843, 235.361978)"><g><path d="M 6.96875 -1.34375 C 7.195312 -1.34375 7.375 -1.265625 7.5 -1.109375 C 7.632812 -0.960938 7.703125 -0.804688 7.703125 -0.640625 C 7.703125 -0.484375 7.640625 -0.335938 7.515625 -0.203125 C 7.398438 -0.0664062 7.21875 0 6.96875 0 L 1.65625 0 C 1.382812 0 1.171875 -0.078125 1.015625 -0.234375 C 0.859375 -0.390625 0.78125 -0.578125 0.78125 -0.796875 L 0.78125 -7.734375 C 0.78125 -7.941406 0.859375 -8.125 1.015625 -8.28125 C 1.171875 -8.4375 1.382812 -8.515625 1.65625 -8.515625 L 6.96875 -8.515625 C 7.207031 -8.515625 7.382812 -8.445312 7.5 -8.3125 C 7.613281 -8.1875 7.671875 -8.039062 7.671875 -7.875 C 7.671875 -7.71875 7.609375 -7.566406 7.484375 -7.421875 C 7.367188 -7.273438 7.195312 -7.203125 6.96875 -7.203125 L 2.296875 -7.203125 L 2.296875 -4.875 L 6.734375 -4.875 C 6.960938 -4.875 7.132812 -4.800781 7.25 -4.65625 C 7.363281 -4.519531 7.421875 -4.367188 7.421875 -4.203125 C 7.421875 -4.035156 7.363281 -3.882812 7.25 -3.75 C 7.132812 -3.625 6.960938 -3.5625 6.734375 -3.5625 L 2.296875 -3.5625 L 2.296875 -1.34375 Z M 6.96875 -1.34375 "/></g></g></g><g fill="#1f2b5b" fill-opacity="1"><g transform="translate(180.129445, 235.361978)"><g/></g></g><g fill="#1f2b5b" fill-opacity="1"><g transform="translate(185.410465, 235.361978)"><g><path d="M 0.09375 -2.015625 C 0.03125 -2.273438 0.09375 -2.476562 0.28125 -2.625 C 0.46875 -2.78125 0.675781 -2.859375 0.90625 -2.859375 C 1.082031 -2.859375 1.238281 -2.816406 1.375 -2.734375 C 1.519531 -2.648438 1.609375 -2.519531 1.640625 -2.34375 C 1.742188 -2.050781 1.929688 -1.828125 2.203125 -1.671875 C 2.472656 -1.515625 2.773438 -1.40625 3.109375 -1.34375 C 3.453125 -1.289062 3.769531 -1.265625 4.0625 -1.265625 C 4.289062 -1.265625 4.546875 -1.28125 4.828125 -1.3125 C 5.109375 -1.351562 5.367188 -1.421875 5.609375 -1.515625 C 5.859375 -1.609375 6.0625 -1.738281 6.21875 -1.90625 C 6.382812 -2.082031 6.46875 -2.300781 6.46875 -2.5625 C 6.46875 -2.851562 6.347656 -3.0625 6.109375 -3.1875 C 5.878906 -3.320312 5.582031 -3.421875 5.21875 -3.484375 C 4.851562 -3.546875 4.46875 -3.585938 4.0625 -3.609375 C 3.613281 -3.648438 3.15625 -3.703125 2.6875 -3.765625 C 2.226562 -3.835938 1.8125 -3.953125 1.4375 -4.109375 C 1.0625 -4.273438 0.753906 -4.507812 0.515625 -4.8125 C 0.285156 -5.125 0.171875 -5.535156 0.171875 -6.046875 C 0.171875 -6.503906 0.285156 -6.894531 0.515625 -7.21875 C 0.753906 -7.550781 1.0625 -7.820312 1.4375 -8.03125 C 1.8125 -8.238281 2.210938 -8.394531 2.640625 -8.5 C 3.078125 -8.601562 3.507812 -8.65625 3.9375 -8.65625 C 4.394531 -8.65625 4.878906 -8.597656 5.390625 -8.484375 C 5.898438 -8.378906 6.363281 -8.191406 6.78125 -7.921875 C 7.207031 -7.648438 7.523438 -7.269531 7.734375 -6.78125 C 7.804688 -6.53125 7.753906 -6.320312 7.578125 -6.15625 C 7.398438 -5.988281 7.195312 -5.90625 6.96875 -5.90625 C 6.820312 -5.90625 6.679688 -5.9375 6.546875 -6 C 6.421875 -6.070312 6.332031 -6.164062 6.28125 -6.28125 C 6.175781 -6.5625 5.988281 -6.769531 5.71875 -6.90625 C 5.457031 -7.039062 5.164062 -7.125 4.84375 -7.15625 C 4.519531 -7.195312 4.222656 -7.21875 3.953125 -7.21875 C 3.765625 -7.21875 3.546875 -7.195312 3.296875 -7.15625 C 3.054688 -7.125 2.820312 -7.0625 2.59375 -6.96875 C 2.363281 -6.882812 2.171875 -6.765625 2.015625 -6.609375 C 1.859375 -6.453125 1.78125 -6.257812 1.78125 -6.03125 C 1.78125 -5.75 1.890625 -5.535156 2.109375 -5.390625 C 2.335938 -5.242188 2.632812 -5.144531 3 -5.09375 C 3.375 -5.039062 3.78125 -5 4.21875 -4.96875 C 4.675781 -4.914062 5.132812 -4.859375 5.59375 -4.796875 C 6.050781 -4.742188 6.46875 -4.644531 6.84375 -4.5 C 7.21875 -4.351562 7.515625 -4.128906 7.734375 -3.828125 C 7.960938 -3.535156 8.078125 -3.117188 8.078125 -2.578125 C 8.078125 -2.046875 7.945312 -1.601562 7.6875 -1.25 C 7.4375 -0.90625 7.101562 -0.628906 6.6875 -0.421875 C 6.28125 -0.222656 5.84375 -0.0820312 5.375 0 C 4.914062 0.09375 4.476562 0.140625 4.0625 0.140625 C 3.71875 0.140625 3.335938 0.101562 2.921875 0.03125 C 2.515625 -0.03125 2.117188 -0.144531 1.734375 -0.3125 C 1.347656 -0.476562 1.003906 -0.695312 0.703125 -0.96875 C 0.410156 -1.25 0.207031 -1.597656 0.09375 -2.015625 Z M 0.09375 -2.015625 "/></g></g></g><g fill="#1f2b5b" fill-opacity="1"><g transform="translate(195.676627, 235.361978)"><g><path d="M 6.921875 -8.515625 C 7.179688 -8.515625 7.378906 -8.441406 7.515625 -8.296875 C 7.648438 -8.160156 7.71875 -8.003906 7.71875 -7.828125 C 7.71875 -7.648438 7.648438 -7.488281 7.515625 -7.34375 C 7.378906 -7.207031 7.179688 -7.140625 6.921875 -7.140625 L 4.4375 -7.140625 L 4.453125 -0.703125 C 4.453125 -0.460938 4.363281 -0.285156 4.1875 -0.171875 C 4.019531 -0.0546875 3.847656 0 3.671875 0 C 3.484375 0 3.304688 -0.0546875 3.140625 -0.171875 C 2.972656 -0.285156 2.890625 -0.460938 2.890625 -0.703125 L 2.890625 -7.140625 L 0.421875 -7.140625 C 0.160156 -7.140625 -0.0234375 -7.207031 -0.140625 -7.34375 C -0.265625 -7.488281 -0.328125 -7.648438 -0.328125 -7.828125 C -0.328125 -8.003906 -0.265625 -8.160156 -0.140625 -8.296875 C -0.0234375 -8.441406 0.160156 -8.515625 0.421875 -8.515625 Z M 6.921875 -8.515625 "/></g></g></g><g fill="#1f2b5b" fill-opacity="1"><g transform="translate(205.180976, 235.361978)"><g><path d="M 9.03125 -4.25 C 9.03125 -3.375 8.847656 -2.609375 8.484375 -1.953125 C 8.117188 -1.296875 7.609375 -0.78125 6.953125 -0.40625 C 6.304688 -0.0390625 5.550781 0.140625 4.6875 0.140625 C 3.8125 0.140625 3.039062 -0.0390625 2.375 -0.40625 C 1.71875 -0.78125 1.207031 -1.296875 0.84375 -1.953125 C 0.476562 -2.609375 0.296875 -3.375 0.296875 -4.25 C 0.296875 -5.132812 0.476562 -5.90625 0.84375 -6.5625 C 1.207031 -7.226562 1.71875 -7.742188 2.375 -8.109375 C 3.039062 -8.472656 3.8125 -8.65625 4.6875 -8.65625 C 5.550781 -8.65625 6.304688 -8.472656 6.953125 -8.109375 C 7.609375 -7.742188 8.117188 -7.226562 8.484375 -6.5625 C 8.847656 -5.90625 9.03125 -5.132812 9.03125 -4.25 Z M 4.6875 -1.234375 C 5.25 -1.234375 5.734375 -1.359375 6.140625 -1.609375 C 6.554688 -1.867188 6.878906 -2.222656 7.109375 -2.671875 C 7.347656 -3.128906 7.46875 -3.65625 7.46875 -4.25 C 7.46875 -4.851562 7.347656 -5.382812 7.109375 -5.84375 C 6.878906 -6.300781 6.554688 -6.65625 6.140625 -6.90625 C 5.734375 -7.164062 5.25 -7.296875 4.6875 -7.296875 C 4.125 -7.296875 3.628906 -7.164062 3.203125 -6.90625 C 2.773438 -6.65625 2.445312 -6.300781 2.21875 -5.84375 C 1.988281 -5.382812 1.875 -4.851562 1.875 -4.25 C 1.875 -3.65625 1.988281 -3.128906 2.21875 -2.671875 C 2.445312 -2.222656 2.773438 -1.867188 3.203125 -1.609375 C 3.628906 -1.359375 4.125 -1.234375 4.6875 -1.234375 Z M 4.6875 -1.234375 "/></g></g></g><g fill="#1f2b5b" fill-opacity="1"><g transform="translate(216.770265, 235.361978)"><g><path d="M 7.71875 -1.3125 C 7.925781 -1.09375 8.023438 -0.882812 8.015625 -0.6875 C 8.003906 -0.488281 7.925781 -0.320312 7.78125 -0.1875 C 7.632812 -0.0625 7.46875 0 7.28125 0 C 7.09375 0.0078125 6.910156 -0.0703125 6.734375 -0.25 L 4.34375 -2.8125 L 2.328125 -2.8125 L 2.328125 -0.703125 C 2.328125 -0.472656 2.242188 -0.296875 2.078125 -0.171875 C 1.910156 -0.0546875 1.734375 0 1.546875 0 C 1.347656 0 1.171875 -0.0546875 1.015625 -0.171875 C 0.859375 -0.285156 0.78125 -0.457031 0.78125 -0.6875 L 0.78125 -7.828125 C 0.78125 -8.023438 0.851562 -8.1875 1 -8.3125 C 1.144531 -8.445312 1.328125 -8.515625 1.546875 -8.515625 L 4.53125 -8.515625 C 5.332031 -8.515625 6 -8.382812 6.53125 -8.125 C 7.070312 -7.875 7.472656 -7.53125 7.734375 -7.09375 C 8.003906 -6.65625 8.140625 -6.164062 8.140625 -5.625 C 8.140625 -5 7.972656 -4.453125 7.640625 -3.984375 C 7.304688 -3.523438 6.796875 -3.195312 6.109375 -3 Z M 2.328125 -4.109375 L 4.546875 -4.109375 C 5.265625 -4.109375 5.785156 -4.253906 6.109375 -4.546875 C 6.441406 -4.847656 6.597656 -5.207031 6.578125 -5.625 C 6.566406 -6.0625 6.382812 -6.425781 6.03125 -6.71875 C 5.675781 -7.019531 5.179688 -7.171875 4.546875 -7.171875 L 2.328125 -7.171875 Z M 2.328125 -4.109375 "/></g></g></g><g fill="#1f2b5b" fill-opacity="1"><g transform="translate(227.183435, 235.361978)"><g><path d="M 6.96875 -1.34375 C 7.195312 -1.34375 7.375 -1.265625 7.5 -1.109375 C 7.632812 -0.960938 7.703125 -0.804688 7.703125 -0.640625 C 7.703125 -0.484375 7.640625 -0.335938 7.515625 -0.203125 C 7.398438 -0.0664062 7.21875 0 6.96875 0 L 1.65625 0 C 1.382812 0 1.171875 -0.078125 1.015625 -0.234375 C 0.859375 -0.390625 0.78125 -0.578125 0.78125 -0.796875 L 0.78125 -7.734375 C 0.78125 -7.941406 0.859375 -8.125 1.015625 -8.28125 C 1.171875 -8.4375 1.382812 -8.515625 1.65625 -8.515625 L 6.96875 -8.515625 C 7.207031 -8.515625 7.382812 -8.445312 7.5 -8.3125 C 7.613281 -8.1875 7.671875 -8.039062 7.671875 -7.875 C 7.671875 -7.71875 7.609375 -7.566406 7.484375 -7.421875 C 7.367188 -7.273438 7.195312 -7.203125 6.96875 -7.203125 L 2.296875 -7.203125 L 2.296875 -4.875 L 6.734375 -4.875 C 6.960938 -4.875 7.132812 -4.800781 7.25 -4.65625 C 7.363281 -4.519531 7.421875 -4.367188 7.421875 -4.203125 C 7.421875 -4.035156 7.363281 -3.882812 7.25 -3.75 C 7.132812 -3.625 6.960938 -3.5625 6.734375 -3.5625 L 2.296875 -3.5625 L 2.296875 -1.34375 Z M 6.96875 -1.34375 "/></g></g></g><g fill="#1f2b5b" fill-opacity="1"><g transform="translate(237.369411, 235.361978)"><g/></g></g><path stroke-linecap="butt" transform="matrix(0.75, 0, 0, 0.75, 72.509765, 187.762692)" fill="none" stroke-linejoin="miter" d="M 36.0599 37.337247 C 35.065108 37.337247 34.299483 37.061205 33.763024 36.519539 C 33.226566 35.972663 32.960941 35.196622 32.960941 34.20183 L 32.960941 13.488287 C 32.960941 12.467454 33.247399 11.686204 33.815108 11.154954 C 34.393233 10.613287 35.205733 10.342453 36.252608 10.342453 C 37.117191 10.342453 37.8099 10.514328 38.320316 10.85287 C 38.830733 11.186204 39.299483 11.738287 39.721358 12.50912 L 47.742192 26.92058 L 46.440109 26.92058 L 54.434901 12.50912 C 54.877609 11.738287 55.351568 11.186204 55.861984 10.85287 C 56.372401 10.514328 57.065109 10.342453 57.940109 10.342453 C 58.929693 10.342453 59.695318 10.613287 60.226568 11.154954 C 60.768235 11.686204 61.039068 12.467454 61.039068 13.488287 L 61.039068 34.20183 C 61.039068 35.196622 60.773443 35.972663 60.247401 36.519539 C 59.726568 37.061205 58.955734 37.337247 57.940109 37.337247 C 56.945318 37.337247 56.179693 37.061205 55.643234 36.519539 C 55.111984 35.972663 54.841151 35.196622 54.841151 34.20183 L 54.841151 21.363288 L 55.627609 21.363288 L 49.611984 31.816413 C 49.263026 32.363288 48.898442 32.769538 48.507817 33.04558 C 48.127609 33.316413 47.611984 33.457038 46.960942 33.457038 C 46.34115 33.457038 45.830734 33.316413 45.429692 33.04558 C 45.033859 32.769538 44.674484 32.363288 44.351567 31.816413 L 38.299483 21.326829 L 39.158858 21.326829 L 39.158858 34.20183 C 39.158858 35.196622 38.898442 35.972663 38.3724 36.519539 C 37.851566 37.061205 37.080733 37.337247 36.0599 37.337247 Z M 67.414068 36.998705 C 66.247402 36.998705 65.356777 36.696622 64.742193 36.087247 C 64.138026 35.472663 63.830735 34.597663 63.830735 33.457038 L 63.830735 14.222662 C 63.830735 13.082037 64.138026 12.207037 64.742193 11.597662 C 65.356777 10.988287 66.247402 10.680995 67.414068 10.680995 L 80.075528 10.680995 C 80.966153 10.680995 81.638028 10.904953 82.085944 11.35287 C 82.539069 11.805995 82.763028 12.451829 82.763028 13.295579 C 82.763028 14.16537 82.539069 14.826829 82.085944 15.29037 C 81.638028 15.753912 80.966153 15.983079 80.075528 15.983079 L 70.403652 15.983079 L 70.403652 20.988287 L 79.252611 20.988287 C 80.122403 20.988287 80.789069 21.212246 81.247403 21.660163 C 81.710944 22.102871 81.940111 22.764329 81.940111 23.639329 C 81.940111 24.509121 81.710944 25.165371 81.247403 25.618496 C 80.789069 26.061204 80.122403 26.279954 79.252611 26.279954 L 70.403652 26.279954 L 70.403652 31.696622 L 80.075528 31.696622 C 80.966153 31.696622 81.638028 31.925788 82.085944 32.38933 C 82.539069 32.847663 82.763028 33.503913 82.763028 34.347663 C 82.763028 35.222663 82.539069 35.884122 82.085944 36.337247 C 81.638028 36.779955 80.966153 36.998705 80.075528 36.998705 Z M 88.278653 36.998705 C 87.111986 36.998705 86.221361 36.696622 85.611986 36.087247 C 85.002611 35.472663 84.700528 34.597663 84.700528 33.457038 L 84.700528 14.222662 C 84.700528 13.082037 85.002611 12.207037 85.611986 11.597662 C 86.221361 10.988287 87.111986 10.680995 88.278653 10.680995 L 95.596362 10.680995 C 100.179696 10.680995 103.721362 11.826829 106.216154 14.113287 C 108.721363 16.404954 109.971363 19.639329 109.971363 23.821621 C 109.971363 25.910163 109.648446 27.774746 108.997404 29.410163 C 108.351571 31.035163 107.419279 32.415372 106.200529 33.54558 C 104.981779 34.675788 103.486987 35.535163 101.705737 36.123705 C 99.924487 36.707039 97.888029 36.998705 95.596362 36.998705 Z M 91.57032 31.441413 L 95.153654 31.441413 C 96.471362 31.441413 97.611987 31.279955 98.57032 30.957038 C 99.528654 30.628913 100.325529 30.154955 100.955737 29.535163 C 101.591154 28.910163 102.059904 28.123705 102.372404 27.186205 C 102.684904 26.238288 102.846362 25.113288 102.846362 23.821621 C 102.846362 21.233079 102.210946 19.326829 100.940112 18.097662 C 99.669279 16.863287 97.742195 16.248704 95.153654 16.248704 L 91.57032 16.248704 Z M 115.41928 37.337247 C 114.32553 37.337247 113.48178 37.035164 112.877613 36.425788 C 112.283863 35.811205 111.986988 34.946622 111.986988 33.82683 L 111.986988 13.85287 C 111.986988 12.707037 112.283863 11.842454 112.877613 11.243495 C 113.48178 10.644537 114.32553 10.342453 115.41928 10.342453 C 116.539072 10.342453 117.38803 10.644537 117.971363 11.243495 C 118.565113 11.842454 118.85678 12.707037 118.85678 13.85287 L 118.85678 33.82683 C 118.85678 34.946622 118.570322 35.811205 117.992197 36.425788 C 117.41928 37.035164 116.565113 37.337247 115.41928 37.337247 Z M 123.820322 29.571621 C 123.07553 29.571621 122.45053 29.321621 121.95053 28.82683 C 121.455739 28.32683 121.205739 27.70183 121.205739 26.957038 C 121.205739 26.207038 121.455739 25.597663 121.95053 25.113288 C 122.45053 24.628913 123.07553 24.384121 123.820322 24.384121 L 131.210948 24.384121 C 131.960948 24.384121 132.580739 24.628913 133.080739 25.113288 C 133.580739 25.597663 133.825531 26.207038 133.825531 26.957038 C 133.825531 27.70183 133.580739 28.32683 133.080739 28.82683 C 132.580739 29.321621 131.960948 29.571621 131.210948 29.571621 Z M 139.309906 37.337247 C 138.309906 37.337247 137.544281 37.061205 137.013031 36.519539 C 136.476573 35.972663 136.210948 35.196622 136.210948 34.20183 L 136.210948 13.488287 C 136.210948 12.467454 136.497406 11.686204 137.065115 11.154954 C 137.64324 10.613287 138.45574 10.342453 139.497406 10.342453 C 140.367198 10.342453 141.059907 10.514328 141.570323 10.85287 C 142.08074 11.186204 142.544282 11.738287 142.971365 12.50912 L 150.992199 26.92058 L 149.690115 26.92058 L 157.679699 12.50912 C 158.122408 11.738287 158.601574 11.186204 159.111991 10.85287 C 159.622408 10.514328 160.315116 10.342453 161.190116 10.342453 C 162.1797 10.342453 162.945325 10.613287 163.476575 11.154954 C 164.018241 11.686204 164.289075 12.467454 164.289075 13.488287 L 164.289075 34.20183 C 164.289075 35.196622 164.02345 35.972663 163.497408 36.519539 C 162.971366 37.061205 162.205741 37.337247 161.190116 37.337247 C 160.195324 37.337247 159.429699 37.061205 158.893241 36.519539 C 158.356783 35.972663 158.091158 35.196622 158.091158 34.20183 L 158.091158 21.363288 L 158.877616 21.363288 L 152.861991 31.816413 C 152.513032 32.363288 152.148449 32.769538 151.757824 33.04558 C 151.372407 33.316413 150.856782 33.457038 150.20574 33.457038 C 149.585949 33.457038 149.075532 33.316413 148.67449 33.04558 C 148.283865 32.769538 147.92449 32.363288 147.601574 31.816413 L 141.54949 21.326829 L 142.408865 21.326829 L 142.408865 34.20183 C 142.408865 35.196622 142.14324 35.972663 141.622407 36.519539 C 141.101573 37.061205 140.33074 37.337247 139.309906 37.337247 Z M 168.309908 37.337247 C 167.539075 37.337247 166.893242 37.160164 166.372408 36.800789 C 165.846367 36.436205 165.52345 35.936205 165.393241 35.305997 C 165.27345 34.665372 165.388033 33.95183 165.7422 33.154955 L 175.039075 13.149745 C 175.481784 12.175787 176.028659 11.467454 176.684909 11.014328 C 177.351576 10.566412 178.106784 10.342453 178.955742 10.342453 C 179.799492 10.342453 180.539076 10.566412 181.169284 11.014328 C 181.809909 11.467454 182.367201 12.175787 182.841159 13.149745 L 192.132827 33.154955 C 192.52866 33.95183 192.669285 34.67058 192.554702 35.321622 C 192.445327 35.967455 192.132827 36.467455 191.62241 36.816414 C 191.111993 37.165372 190.486993 37.337247 189.736993 37.337247 C 188.74741 37.337247 187.981785 37.113289 187.440118 36.665372 C 186.908868 36.212247 186.429701 35.493497 186.013034 34.503913 L 183.997409 29.753913 L 186.601576 31.660163 L 171.226575 31.660163 L 173.877617 29.753913 L 171.856784 34.503913 C 171.414075 35.493497 170.955742 36.212247 170.481783 36.665372 C 170.007825 37.113289 169.283867 37.337247 168.309908 37.337247 Z M 178.872409 17.852871 L 174.544284 28.186205 L 173.507825 26.399746 L 184.372409 26.399746 L 183.320326 28.186205 L 178.955742 17.852871 Z M 196.945327 37.337247 C 195.851577 37.337247 195.002618 37.035164 194.40366 36.425788 C 193.804702 35.811205 193.507827 34.957038 193.507827 33.863288 L 193.507827 14.149745 C 193.507827 13.035162 193.815118 12.175787 194.419285 11.582037 C 195.033868 10.97787 195.888035 10.680995 196.981785 10.680995 L 206.169286 10.680995 C 209.153661 10.680995 211.455745 11.410162 213.085953 12.868495 C 214.72137 14.326829 215.539078 16.347662 215.539078 18.936204 C 215.539078 20.602871 215.169286 22.050788 214.434911 23.285163 C 213.700536 24.509121 212.638036 25.457038 211.252619 26.118496 C 209.872411 26.779955 208.179703 27.113288 206.169286 27.113288 L 206.460953 26.436205 L 208.257828 26.436205 C 209.325536 26.436205 210.268244 26.691413 211.091161 27.20183 C 211.914078 27.712246 212.601578 28.488288 213.148453 29.535163 L 215.007828 32.88933 C 215.40887 33.613288 215.59637 34.316413 215.575536 35.003913 C 215.549495 35.691413 215.28387 36.253913 214.773453 36.691414 C 214.263036 37.123705 213.518245 37.337247 212.549495 37.337247 C 211.575536 37.337247 210.783869 37.13933 210.179703 36.743497 C 209.570328 36.342455 209.028661 35.722663 208.554703 34.878913 L 205.158869 28.634121 C 204.856786 28.087246 204.481786 27.712246 204.018244 27.503913 C 203.554702 27.290371 203.028661 27.186205 202.429702 27.186205 L 200.382827 27.186205 L 200.382827 33.863288 C 200.382827 34.957038 200.09116 35.811205 199.513035 36.425788 C 198.945327 37.035164 198.085952 37.337247 196.945327 37.337247 Z M 200.382827 22.326829 L 204.940119 22.326829 C 206.257827 22.326829 207.263036 22.066413 207.955744 21.545579 C 208.653661 21.019537 209.002619 20.212246 209.002619 19.118496 C 209.002619 18.071621 208.653661 17.285162 207.955744 16.748704 C 207.263036 16.212246 206.257827 15.94662 204.940119 15.94662 L 200.382827 15.94662 Z M 227.445329 37.337247 C 226.351579 37.337247 225.50262 37.035164 224.898454 36.425788 C 224.304704 35.811205 224.007829 34.957038 224.007829 33.863288 L 224.007829 16.285162 L 218.148453 16.285162 C 217.22137 16.285162 216.518245 16.04037 216.03387 15.555995 C 215.554703 15.07162 215.31512 14.378912 215.31512 13.488287 C 215.31512 12.561204 215.554703 11.863287 216.03387 11.389329 C 216.518245 10.91537 217.22137 10.680995 218.148453 10.680995 L 236.736996 10.680995 C 237.658871 10.680995 238.356788 10.91537 238.846371 11.389329 C 239.330746 11.863287 239.575538 12.561204 239.575538 13.488287 C 239.575538 14.378912 239.330746 15.07162 238.846371 15.555995 C 238.356788 16.04037 237.658871 16.285162 236.736996 16.285162 L 230.877621 16.285162 L 230.877621 33.863288 C 230.877621 34.957038 230.591162 35.811205 230.013037 36.425788 C 229.440121 37.035164 228.585954 37.337247 227.445329 37.337247 Z M 227.445329 37.337247 " stroke="#ffffff" stroke-width="9.146659" stroke-opacity="1" stroke-miterlimit="4"/><g fill="#2ca75a" fill-opacity="1"><g transform="translate(95.384763, 215.51269)"><g><path d="M 4.171875 0.25 C 3.421875 0.25 2.84375 0.046875 2.4375 -0.359375 C 2.039062 -0.773438 1.84375 -1.351562 1.84375 -2.09375 L 1.84375 -17.640625 C 1.84375 -18.398438 2.054688 -18.976562 2.484375 -19.375 C 2.921875 -19.78125 3.53125 -19.984375 4.3125 -19.984375 C 4.96875 -19.984375 5.484375 -19.859375 5.859375 -19.609375 C 6.242188 -19.359375 6.597656 -18.945312 6.921875 -18.375 L 12.9375 -7.5625 L 11.953125 -7.5625 L 17.953125 -18.375 C 18.285156 -18.945312 18.640625 -19.359375 19.015625 -19.609375 C 19.398438 -19.859375 19.921875 -19.984375 20.578125 -19.984375 C 21.328125 -19.984375 21.898438 -19.78125 22.296875 -19.375 C 22.703125 -18.976562 22.90625 -18.398438 22.90625 -17.640625 L 22.90625 -2.09375 C 22.90625 -1.351562 22.707031 -0.773438 22.3125 -0.359375 C 21.925781 0.046875 21.347656 0.25 20.578125 0.25 C 19.828125 0.25 19.25 0.046875 18.84375 -0.359375 C 18.445312 -0.773438 18.25 -1.351562 18.25 -2.09375 L 18.25 -11.734375 L 18.84375 -11.734375 L 14.34375 -3.890625 C 14.070312 -3.484375 13.789062 -3.175781 13.5 -2.96875 C 13.21875 -2.757812 12.832031 -2.65625 12.34375 -2.65625 C 11.875 -2.65625 11.488281 -2.757812 11.1875 -2.96875 C 10.894531 -3.175781 10.628906 -3.484375 10.390625 -3.890625 L 5.859375 -11.765625 L 6.5 -11.765625 L 6.5 -2.09375 C 6.5 -1.351562 6.300781 -0.773438 5.90625 -0.359375 C 5.507812 0.046875 4.929688 0.25 4.171875 0.25 Z M 4.171875 0.25 "/></g></g></g><g fill="#2ca75a" fill-opacity="1"><g transform="translate(118.59339, 215.51269)"><g><path d="M 4.484375 0 C 3.597656 0 2.925781 -0.226562 2.46875 -0.6875 C 2.019531 -1.144531 1.796875 -1.800781 1.796875 -2.65625 L 1.796875 -17.078125 C 1.796875 -17.941406 2.019531 -18.597656 2.46875 -19.046875 C 2.925781 -19.503906 3.597656 -19.734375 4.484375 -19.734375 L 13.96875 -19.734375 C 14.644531 -19.734375 15.148438 -19.566406 15.484375 -19.234375 C 15.816406 -18.898438 15.984375 -18.414062 15.984375 -17.78125 C 15.984375 -17.125 15.816406 -16.625 15.484375 -16.28125 C 15.148438 -15.9375 14.644531 -15.765625 13.96875 -15.765625 L 6.71875 -15.765625 L 6.71875 -12.015625 L 13.359375 -12.015625 C 14.015625 -12.015625 14.515625 -11.84375 14.859375 -11.5 C 15.203125 -11.164062 15.375 -10.675781 15.375 -10.03125 C 15.375 -9.375 15.203125 -8.875 14.859375 -8.53125 C 14.515625 -8.195312 14.015625 -8.03125 13.359375 -8.03125 L 6.71875 -8.03125 L 6.71875 -3.96875 L 13.96875 -3.96875 C 14.644531 -3.96875 15.148438 -3.796875 15.484375 -3.453125 C 15.816406 -3.109375 15.984375 -2.617188 15.984375 -1.984375 C 15.984375 -1.335938 15.816406 -0.84375 15.484375 -0.5 C 15.148438 -0.164062 14.644531 0 13.96875 0 Z M 4.484375 0 "/></g></g></g><g fill="#2ca75a" fill-opacity="1"><g transform="translate(134.243046, 215.51269)"><g><path d="M 4.484375 0 C 3.597656 0 2.925781 -0.226562 2.46875 -0.6875 C 2.019531 -1.144531 1.796875 -1.800781 1.796875 -2.65625 L 1.796875 -17.078125 C 1.796875 -17.941406 2.019531 -18.597656 2.46875 -19.046875 C 2.925781 -19.503906 3.597656 -19.734375 4.484375 -19.734375 L 9.96875 -19.734375 C 13.40625 -19.734375 16.0625 -18.875 17.9375 -17.15625 C 19.8125 -15.445312 20.75 -13.023438 20.75 -9.890625 C 20.75 -8.316406 20.503906 -6.914062 20.015625 -5.6875 C 19.535156 -4.46875 18.835938 -3.429688 17.921875 -2.578125 C 17.003906 -1.734375 15.878906 -1.09375 14.546875 -0.65625 C 13.210938 -0.21875 11.6875 0 9.96875 0 Z M 6.9375 -4.171875 L 9.625 -4.171875 C 10.613281 -4.171875 11.46875 -4.289062 12.1875 -4.53125 C 12.90625 -4.78125 13.503906 -5.132812 13.984375 -5.59375 C 14.460938 -6.0625 14.816406 -6.648438 15.046875 -7.359375 C 15.285156 -8.066406 15.40625 -8.910156 15.40625 -9.890625 C 15.40625 -11.828125 14.925781 -13.253906 13.96875 -14.171875 C 13.019531 -15.097656 11.570312 -15.5625 9.625 -15.5625 L 6.9375 -15.5625 Z M 6.9375 -4.171875 "/></g></g></g><g fill="#2ca75a" fill-opacity="1"><g transform="translate(154.708042, 215.51269)"><g><path d="M 4.375 0.25 C 3.550781 0.25 2.914062 0.0195312 2.46875 -0.4375 C 2.019531 -0.894531 1.796875 -1.539062 1.796875 -2.375 L 1.796875 -17.359375 C 1.796875 -18.210938 2.019531 -18.863281 2.46875 -19.3125 C 2.914062 -19.757812 3.550781 -19.984375 4.375 -19.984375 C 5.207031 -19.984375 5.84375 -19.757812 6.28125 -19.3125 C 6.71875 -18.863281 6.9375 -18.210938 6.9375 -17.359375 L 6.9375 -2.375 C 6.9375 -1.539062 6.722656 -0.894531 6.296875 -0.4375 C 5.867188 0.0195312 5.226562 0.25 4.375 0.25 Z M 4.375 0.25 "/></g></g></g><g fill="#2ca75a" fill-opacity="1"><g transform="translate(161.90285, 215.51269)"><g><path d="M 3.46875 -5.578125 C 2.90625 -5.578125 2.4375 -5.757812 2.0625 -6.125 C 1.695312 -6.5 1.515625 -6.96875 1.515625 -7.53125 C 1.515625 -8.09375 1.695312 -8.554688 2.0625 -8.921875 C 2.4375 -9.285156 2.90625 -9.46875 3.46875 -9.46875 L 9.015625 -9.46875 C 9.578125 -9.46875 10.039062 -9.285156 10.40625 -8.921875 C 10.78125 -8.554688 10.96875 -8.09375 10.96875 -7.53125 C 10.96875 -6.96875 10.78125 -6.5 10.40625 -6.125 C 10.039062 -5.757812 9.578125 -5.578125 9.015625 -5.578125 Z M 3.46875 -5.578125 "/></g></g></g><g fill="#2ca75a" fill-opacity="1"><g transform="translate(172.821154, 215.51269)"><g><path d="M 4.171875 0.25 C 3.421875 0.25 2.84375 0.046875 2.4375 -0.359375 C 2.039062 -0.773438 1.84375 -1.351562 1.84375 -2.09375 L 1.84375 -17.640625 C 1.84375 -18.398438 2.054688 -18.976562 2.484375 -19.375 C 2.921875 -19.78125 3.53125 -19.984375 4.3125 -19.984375 C 4.96875 -19.984375 5.484375 -19.859375 5.859375 -19.609375 C 6.242188 -19.359375 6.597656 -18.945312 6.921875 -18.375 L 12.9375 -7.5625 L 11.953125 -7.5625 L 17.953125 -18.375 C 18.285156 -18.945312 18.640625 -19.359375 19.015625 -19.609375 C 19.398438 -19.859375 19.921875 -19.984375 20.578125 -19.984375 C 21.328125 -19.984375 21.898438 -19.78125 22.296875 -19.375 C 22.703125 -18.976562 22.90625 -18.398438 22.90625 -17.640625 L 22.90625 -2.09375 C 22.90625 -1.351562 22.707031 -0.773438 22.3125 -0.359375 C 21.925781 0.046875 21.347656 0.25 20.578125 0.25 C 19.828125 0.25 19.25 0.046875 18.84375 -0.359375 C 18.445312 -0.773438 18.25 -1.351562 18.25 -2.09375 L 18.25 -11.734375 L 18.84375 -11.734375 L 14.34375 -3.890625 C 14.070312 -3.484375 13.789062 -3.175781 13.5 -2.96875 C 13.21875 -2.757812 12.832031 -2.65625 12.34375 -2.65625 C 11.875 -2.65625 11.488281 -2.757812 11.1875 -2.96875 C 10.894531 -3.175781 10.628906 -3.484375 10.390625 -3.890625 L 5.859375 -11.765625 L 6.5 -11.765625 L 6.5 -2.09375 C 6.5 -1.351562 6.300781 -0.773438 5.90625 -0.359375 C 5.507812 0.046875 4.929688 0.25 4.171875 0.25 Z M 4.171875 0.25 "/></g></g></g><g fill="#2ca75a" fill-opacity="1"><g transform="translate(196.029776, 215.51269)"><g><path d="M 2.71875 0.25 C 2.132812 0.25 1.644531 0.113281 1.25 -0.15625 C 0.863281 -0.425781 0.625 -0.796875 0.53125 -1.265625 C 0.4375 -1.742188 0.519531 -2.285156 0.78125 -2.890625 L 7.75 -17.890625 C 8.09375 -18.617188 8.507812 -19.148438 9 -19.484375 C 9.5 -19.816406 10.066406 -19.984375 10.703125 -19.984375 C 11.328125 -19.984375 11.878906 -19.816406 12.359375 -19.484375 C 12.835938 -19.148438 13.253906 -18.617188 13.609375 -17.890625 L 20.578125 -2.890625 C 20.878906 -2.285156 20.988281 -1.738281 20.90625 -1.25 C 20.820312 -0.769531 20.585938 -0.398438 20.203125 -0.140625 C 19.816406 0.117188 19.34375 0.25 18.78125 0.25 C 18.039062 0.25 17.46875 0.0820312 17.0625 -0.25 C 16.664062 -0.582031 16.304688 -1.125 15.984375 -1.875 L 14.46875 -5.4375 L 16.4375 -4 L 4.90625 -4 L 6.890625 -5.4375 L 5.375 -1.875 C 5.039062 -1.125 4.695312 -0.582031 4.34375 -0.25 C 3.988281 0.0820312 3.445312 0.25 2.71875 0.25 Z M 10.640625 -14.359375 L 7.390625 -6.609375 L 6.609375 -7.953125 L 14.75 -7.953125 L 13.96875 -6.609375 L 10.703125 -14.359375 Z M 10.640625 -14.359375 "/></g></g></g><g fill="#2ca75a" fill-opacity="1"><g transform="translate(215.850862, 215.51269)"><g><path d="M 4.375 0.25 C 3.550781 0.25 2.914062 0.0195312 2.46875 -0.4375 C 2.019531 -0.894531 1.796875 -1.535156 1.796875 -2.359375 L 1.796875 -17.140625 C 1.796875 -17.972656 2.019531 -18.613281 2.46875 -19.0625 C 2.925781 -19.507812 3.566406 -19.734375 4.390625 -19.734375 L 11.28125 -19.734375 C 13.519531 -19.734375 15.25 -19.1875 16.46875 -18.09375 C 17.695312 -17.007812 18.3125 -15.492188 18.3125 -13.546875 C 18.3125 -12.296875 18.035156 -11.207031 17.484375 -10.28125 C 16.929688 -9.363281 16.132812 -8.65625 15.09375 -8.15625 C 14.0625 -7.664062 12.789062 -7.421875 11.28125 -7.421875 L 11.515625 -7.921875 L 12.859375 -7.921875 C 13.660156 -7.921875 14.367188 -7.726562 14.984375 -7.34375 C 15.597656 -6.96875 16.109375 -6.382812 16.515625 -5.59375 L 17.921875 -3.078125 C 18.222656 -2.535156 18.363281 -2.007812 18.34375 -1.5 C 18.320312 -0.988281 18.117188 -0.566406 17.734375 -0.234375 C 17.359375 0.0859375 16.804688 0.25 16.078125 0.25 C 15.347656 0.25 14.753906 0.101562 14.296875 -0.1875 C 13.835938 -0.488281 13.429688 -0.957031 13.078125 -1.59375 L 10.53125 -6.265625 C 10.300781 -6.679688 10.015625 -6.96875 9.671875 -7.125 C 9.328125 -7.28125 8.929688 -7.359375 8.484375 -7.359375 L 6.9375 -7.359375 L 6.9375 -2.359375 C 6.9375 -1.535156 6.722656 -0.894531 6.296875 -0.4375 C 5.867188 0.0195312 5.226562 0.25 4.375 0.25 Z M 6.9375 -11 L 10.359375 -11 C 11.347656 -11 12.101562 -11.195312 12.625 -11.59375 C 13.144531 -11.988281 13.40625 -12.59375 13.40625 -13.40625 C 13.40625 -14.195312 13.144531 -14.789062 12.625 -15.1875 C 12.101562 -15.59375 11.347656 -15.796875 10.359375 -15.796875 L 6.9375 -15.796875 Z M 6.9375 -11 "/></g></g></g><g fill="#2ca75a" fill-opacity="1"><g transform="translate(234.076172, 215.51269)"><g><path d="M 9.015625 0.25 C 8.191406 0.25 7.554688 0.0195312 7.109375 -0.4375 C 6.660156 -0.894531 6.4375 -1.535156 6.4375 -2.359375 L 6.4375 -15.546875 L 2.046875 -15.546875 C 1.359375 -15.546875 0.832031 -15.722656 0.46875 -16.078125 C 0.101562 -16.441406 -0.078125 -16.960938 -0.078125 -17.640625 C -0.078125 -18.328125 0.101562 -18.847656 0.46875 -19.203125 C 0.832031 -19.554688 1.359375 -19.734375 2.046875 -19.734375 L 15.984375 -19.734375 C 16.679688 -19.734375 17.207031 -19.554688 17.5625 -19.203125 C 17.925781 -18.847656 18.109375 -18.328125 18.109375 -17.640625 C 18.109375 -16.960938 17.925781 -16.441406 17.5625 -16.078125 C 17.207031 -15.722656 16.679688 -15.546875 15.984375 -15.546875 L 11.59375 -15.546875 L 11.59375 -2.359375 C 11.59375 -1.535156 11.375 -0.894531 10.9375 -0.4375 C 10.507812 0.0195312 9.867188 0.25 9.015625 0.25 Z M 9.015625 0.25 "/></g></g></g></svg>